<svg width="142" height="19" viewBox="0 0 142 19" fill="none" xmlns="http://www.w3.org/2000/svg">
<path d="M5.408 6.808C6.54933 6.808 7.52 7.21333 8.32 8.024C9.13067 8.83467 9.536 9.82667 9.536 11C9.536 12.1733 9.13067 13.1653 8.32 13.976C7.52 14.7867 6.54933 15.192 5.408 15.192C3.98933 15.192 2.912 14.6053 2.176 13.432V18.2H1.12V7H2.176V8.568C2.912 7.39467 3.98933 6.808 5.408 6.808ZM3.088 13.256C3.696 13.864 4.44267 14.168 5.328 14.168C6.21333 14.168 6.96 13.864 7.568 13.256C8.176 12.6373 8.48 11.8853 8.48 11C8.48 10.1147 8.176 9.368 7.568 8.76C6.96 8.14133 6.21333 7.832 5.328 7.832C4.44267 7.832 3.696 8.14133 3.088 8.76C2.48 9.368 2.176 10.1147 2.176 11C2.176 11.8853 2.48 12.6373 3.088 13.256ZM17.9959 13.992C17.1852 14.792 16.1932 15.192 15.0199 15.192C13.8465 15.192 12.8492 14.792 12.0279 13.992C11.2172 13.1813 10.8119 12.184 10.8119 11C10.8119 9.816 11.2172 8.824 12.0279 8.024C12.8492 7.21333 13.8465 6.808 15.0199 6.808C16.1932 6.808 17.1852 7.21333 17.9959 8.024C18.8172 8.824 19.2279 9.816 19.2279 11C19.2279 12.184 18.8172 13.1813 17.9959 13.992ZM12.7799 13.256C13.3879 13.864 14.1345 14.168 15.0199 14.168C15.9052 14.168 16.6519 13.864 17.2599 13.256C17.8679 12.6373 18.1719 11.8853 18.1719 11C18.1719 10.1147 17.8679 9.368 17.2599 8.76C16.6519 8.14133 15.9052 7.832 15.0199 7.832C14.1345 7.832 13.3879 8.14133 12.7799 8.76C12.1719 9.368 11.8679 10.1147 11.8679 11C11.8679 11.8853 12.1719 12.6373 12.7799 13.256ZM30.3145 7H31.4025L28.9385 15H27.7865L25.7225 8.552L23.6585 15H22.5065L20.0425 7H21.1305L23.0985 13.64L25.1945 7H26.2505L28.3465 13.64L30.3145 7ZM36.3785 6.808C37.5625 6.808 38.5172 7.22933 39.2425 8.072C39.9785 8.904 40.3465 9.89067 40.3465 11.032C40.3465 11.1493 40.3358 11.3147 40.3145 11.528H33.2905C33.3972 12.3387 33.7385 12.984 34.3145 13.464C34.9012 13.9333 35.6212 14.168 36.4745 14.168C37.0825 14.168 37.6052 14.0453 38.0425 13.8C38.4905 13.544 38.8265 13.2133 39.0505 12.808L39.9785 13.352C39.6265 13.9173 39.1465 14.3653 38.5385 14.696C37.9305 15.0267 37.2372 15.192 36.4585 15.192C35.1998 15.192 34.1758 14.7973 33.3865 14.008C32.5972 13.2187 32.2025 12.216 32.2025 11C32.2025 9.80533 32.5918 8.808 33.3705 8.008C34.1492 7.208 35.1518 6.808 36.3785 6.808ZM36.3785 7.832C35.5465 7.832 34.8478 8.08267 34.2825 8.584C33.7278 9.07467 33.3972 9.71467 33.2905 10.504H39.2585C39.1518 9.66133 38.8265 9.00533 38.2825 8.536C37.7385 8.06667 37.1038 7.832 36.3785 7.832ZM43.0823 8.328C43.5729 7.35733 44.4156 6.872 45.6102 6.872V7.896C44.8849 7.896 44.2823 8.10933 43.8023 8.536C43.3223 8.96267 43.0823 9.63467 43.0823 10.552V15H42.0263V7H43.0823V8.328ZM50.2691 6.808C51.4531 6.808 52.4078 7.22933 53.1331 8.072C53.8691 8.904 54.2371 9.89067 54.2371 11.032C54.2371 11.1493 54.2265 11.3147 54.2051 11.528H47.1811C47.2878 12.3387 47.6291 12.984 48.2051 13.464C48.7918 13.9333 49.5118 14.168 50.3651 14.168C50.9731 14.168 51.4958 14.0453 51.9331 13.8C52.3811 13.544 52.7171 13.2133 52.9411 12.808L53.8691 13.352C53.5171 13.9173 53.0371 14.3653 52.4291 14.696C51.8211 15.0267 51.1278 15.192 50.3491 15.192C49.0905 15.192 48.0665 14.7973 47.2771 14.008C46.4878 13.2187 46.0931 12.216 46.0931 11C46.0931 9.80533 46.4825 8.808 47.2611 8.008C48.0398 7.208 49.0425 6.808 50.2691 6.808ZM50.2691 7.832C49.4371 7.832 48.7385 8.08267 48.1731 8.584C47.6185 9.07467 47.2878 9.71467 47.1811 10.504H53.1491C53.0425 9.66133 52.7171 9.00533 52.1731 8.536C51.6291 8.06667 50.9945 7.832 50.2691 7.832ZM62.7969 3.8H63.8529V15H62.7969V13.432C62.0609 14.6053 60.9835 15.192 59.5649 15.192C58.4235 15.192 57.4475 14.7867 56.6369 13.976C55.8369 13.1653 55.4369 12.1733 55.4369 11C55.4369 9.82667 55.8369 8.83467 56.6369 8.024C57.4475 7.21333 58.4235 6.808 59.5649 6.808C60.9835 6.808 62.0609 7.39467 62.7969 8.568V3.8ZM57.4049 13.256C58.0129 13.864 58.7595 14.168 59.6449 14.168C60.5302 14.168 61.2769 13.864 61.8849 13.256C62.4929 12.6373 62.7969 11.8853 62.7969 11C62.7969 10.1147 62.4929 9.368 61.8849 8.76C61.2769 8.14133 60.5302 7.832 59.6449 7.832C58.7595 7.832 58.0129 8.14133 57.4049 8.76C56.7969 9.368 56.4929 10.1147 56.4929 11C56.4929 11.8853 56.7969 12.6373 57.4049 13.256ZM74.3768 6.808C75.5181 6.808 76.4888 7.21333 77.2888 8.024C78.0994 8.83467 78.5048 9.82667 78.5048 11C78.5048 12.1733 78.0994 13.1653 77.2888 13.976C76.4888 14.7867 75.5181 15.192 74.3768 15.192C72.9581 15.192 71.8808 14.6053 71.1448 13.432V15H70.0888V3.8H71.1448V8.568C71.8808 7.39467 72.9581 6.808 74.3768 6.808ZM72.0568 13.256C72.6648 13.864 73.4114 14.168 74.2968 14.168C75.1821 14.168 75.9288 13.864 76.5368 13.256C77.1448 12.6373 77.4488 11.8853 77.4488 11C77.4488 10.1147 77.1448 9.368 76.5368 8.76C75.9288 8.14133 75.1821 7.832 74.2968 7.832C73.4114 7.832 72.6648 8.14133 72.0568 8.76C71.4488 9.368 71.1448 10.1147 71.1448 11C71.1448 11.8853 71.4488 12.6373 72.0568 13.256ZM85.7081 7H86.8281L83.4041 15.736C83.0948 16.5253 82.6521 17.144 82.0761 17.592C81.5108 18.0507 80.8761 18.2533 80.1721 18.2V17.208C81.1321 17.3147 81.8628 16.76 82.3641 15.544L82.5721 15.048L78.9881 7H80.1081L83.1161 13.704L85.7081 7Z" fill="black"/>
<g clip-path="url(#clip0_503_74)">
<path d="M105.109 4H97.5168C93.9169 4 91 6.85164 91 10.3699V10.6017C91 14.12 93.9169 16.9716 97.5168 16.9716H105.109C108.709 16.9716 111.627 14.12 111.627 10.6017V10.3699C111.627 6.85164 108.709 4 105.109 4ZM108.384 14.1324C107.485 15.0251 106.26 15.4714 104.707 15.4714C103.154 15.4714 101.926 15.0241 101.022 14.1295C100.118 13.234 99.6676 12.0189 99.6676 10.4873C99.6676 8.94506 100.118 7.72717 101.018 6.83734C101.92 5.94656 103.15 5.50021 104.706 5.50021C106.259 5.50021 107.484 5.94656 108.383 6.83734C109.282 7.72812 109.732 8.94506 109.732 10.4873C109.733 12.0237 109.283 13.2397 108.384 14.1324Z" fill="black"/>
<path d="M118.472 14.0428C118.472 14.5053 118.335 14.8591 118.061 15.1062C117.785 15.3522 117.392 15.4762 116.878 15.4762C116.355 15.4762 115.958 15.357 115.685 15.1195C115.413 14.8811 115.276 14.5225 115.276 14.0418V11.7538L112.878 7.74719C112.842 7.68521 112.807 7.61941 112.776 7.54883C112.745 7.47825 112.713 7.3991 112.682 7.3104C112.641 7.16446 112.621 7.01761 112.621 6.86787C112.621 6.48447 112.77 6.1602 113.07 5.89602C113.37 5.63184 113.744 5.49927 114.195 5.49927C114.497 5.49927 114.757 5.57366 114.976 5.72149C115.194 5.86931 115.392 6.10298 115.567 6.42057L116.878 8.94604L118.209 6.391C118.29 6.2365 118.378 6.10488 118.472 5.99521C118.567 5.88553 118.672 5.79302 118.79 5.71767C119.019 5.57271 119.296 5.49927 119.621 5.49927C120.045 5.49927 120.395 5.62611 120.672 5.87885C120.949 6.13159 121.088 6.45204 121.088 6.83925C121.088 6.98899 121.066 7.14255 121.023 7.3018C120.98 7.46013 120.923 7.59936 120.851 7.71763L118.473 11.7586V14.0428H118.472Z" fill="black"/>
<path d="M124.763 14.6369C124.654 14.9192 124.485 15.1386 124.256 15.2969C124.144 15.3674 124.016 15.4228 123.875 15.4619C123.733 15.5019 123.583 15.521 123.426 15.521C122.985 15.521 122.634 15.4008 122.375 15.1615C122.116 14.9211 121.986 14.595 121.986 14.181L122.007 13.8377C122.02 13.7452 122.041 13.6613 122.067 13.5868L124.487 6.93079C124.676 6.39384 124.892 6.02093 125.138 5.81207C125.383 5.6032 125.707 5.49829 126.108 5.49829H127.034C127.443 5.49829 127.761 5.59271 127.99 5.7825C128.217 5.97134 128.435 6.35474 128.642 6.93174L131.087 13.5878L131.161 13.8587L131.189 14.1953C131.189 14.5911 131.057 14.9116 130.793 15.1557C130.53 15.3999 130.182 15.5219 129.749 15.5219C129.407 15.5219 129.122 15.4485 128.894 15.3007C128.667 15.1529 128.499 14.9316 128.391 14.6369L128.168 14.0694H124.985L124.763 14.6369ZM125.58 12.0294H127.586L126.593 8.6618L125.58 12.0294Z" fill="black"/>
<path d="M135.654 14.0561C135.654 14.5186 135.527 14.8706 135.272 15.1128C135.018 15.355 134.643 15.4762 134.147 15.4762C133.67 15.4762 133.296 15.3474 133.026 15.0899C132.756 14.8324 132.621 14.47 132.621 14.0036V7.09674C132.621 6.59889 132.777 6.20882 133.09 5.92461C133.404 5.6404 133.837 5.49829 134.391 5.49829C134.784 5.49829 135.123 5.58508 135.411 5.75961C135.699 5.93319 135.965 6.21168 136.208 6.59508L138.256 9.88352C138.386 10.0819 138.516 10.3203 138.644 10.5998C138.773 10.8792 138.9 11.193 139.026 11.5411L138.965 11.0261C138.965 10.8811 138.963 10.7409 138.958 10.6065C138.953 10.472 138.949 10.3432 138.945 10.2202V6.9718C138.945 6.50924 139.077 6.14873 139.343 5.88932C139.477 5.76152 139.637 5.66519 139.823 5.59843C140.008 5.53167 140.221 5.49925 140.465 5.49925C140.969 5.49925 141.35 5.62037 141.607 5.86262C141.863 6.10486 141.992 6.45678 141.992 6.91934V13.8329C141.992 14.3746 141.851 14.7838 141.567 15.0613C141.283 15.3389 140.862 15.4771 140.303 15.4771C139.83 15.4771 139.446 15.3932 139.152 15.2263C138.857 15.0594 138.581 14.7733 138.324 14.3679L136.277 11.0995C136.146 10.8878 136.013 10.6398 135.879 10.3537C135.77 10.0943 135.667 9.80152 135.567 9.47534L135.635 10.0762L135.655 10.8029V14.0561H135.654Z" fill="black"/>
</g>
<defs>
<clipPath id="clip0_503_74">
<rect width="51" height="13" fill="white" transform="translate(91 4)"/>
</clipPath>
</defs>
</svg>
