<svg width="117" height="50" viewBox="0 0 117 50" fill="none" xmlns="http://www.w3.org/2000/svg">
<mask id="mask0_527_114" style="mask-type:luminance" maskUnits="userSpaceOnUse" x="0" y="0" width="51" height="50">
<path d="M50.5556 0H0V50H50.5556V0Z" fill="white"/>
</mask>
<g mask="url(#mask0_527_114)">
<path d="M50.5556 0H0V50H50.5556V0Z" fill="#1869FF"/>
<path d="M27.0336 5.93698H23.4807C13.8054 5.93698 5.96191 13.6942 5.96191 23.2633V26.7771C5.96191 36.3461 13.8054 44.1034 23.4807 44.1034H27.0336C36.709 44.1034 44.5524 36.3461 44.5524 26.7771V23.2633C44.5524 13.6942 36.709 5.93698 27.0336 5.93698Z" fill="black"/>
</g>
<path d="M65.1267 31.9028H75.4227V36.4286H59.0254V32.6571L69.1134 16.9543H59.2681V12.4286H75.2147V16.1657L65.1267 31.9028ZM96.2978 36.9086C93.5938 36.9086 91.3752 36.1543 89.6418 34.6457C87.9085 33.1371 87.0418 31.1143 87.0418 28.5771V12.4286H91.7912V28.2C91.7912 29.4571 92.1494 30.4514 92.8658 31.1828C93.6054 31.9143 94.7494 32.28 96.2978 32.28C97.8463 32.28 98.9787 31.9143 99.6952 31.1828C100.435 30.4514 100.805 29.4571 100.805 28.2V12.4286H105.589V28.5771C105.589 31.1143 104.722 33.1371 102.989 34.6457C101.255 36.1543 99.0249 36.9086 96.2978 36.9086ZM109.898 12.4286H114.682V36.4286H109.898V12.4286Z" fill="white"/>
</svg>
